<svg width="25" height="24" viewBox="0 0 25 24" fill="none" xmlns="http://www.w3.org/2000/svg">
<path d="M12.3278 0C5.65819 0 0.250244 5.37201 0.250244 11.9973C0.250244 16.9087 3.2265 21.1292 7.48062 22.9877C7.44826 22.1522 7.47522 21.1453 7.69089 20.2348C7.92274 19.26 9.24373 13.6952 9.24373 13.6952C9.24373 13.6952 8.85552 12.9293 8.85552 11.7992C8.85552 10.021 9.89074 8.6927 11.1848 8.6927C12.2847 8.6927 12.8131 9.51216 12.8131 10.4923C12.8131 11.5903 12.1068 13.2292 11.7455 14.7503C11.4436 16.025 12.3871 17.0587 13.6542 17.0587C15.9403 17.0587 17.4824 14.1397 17.4824 10.6798C17.4824 8.04999 15.6977 6.08436 12.4572 6.08436C8.79621 6.08436 6.5101 8.79982 6.5101 11.8313C6.5101 12.8757 6.82282 13.6148 7.30808 14.1825C7.52914 14.445 7.56149 14.5521 7.48062 14.852C7.42131 15.0716 7.2919 15.6019 7.23259 15.8161C7.15172 16.1214 6.9037 16.2285 6.62872 16.116C4.94109 15.4305 4.15389 13.5988 4.15389 11.5314C4.15389 8.12497 7.04927 4.03838 12.7861 4.03838C17.3961 4.03838 20.4317 7.35371 20.4317 10.9101C20.4317 15.6179 17.7951 19.1314 13.913 19.1314C12.6082 19.1314 11.3843 18.4298 10.9637 17.6371C10.9637 17.6371 10.2628 20.4008 10.1118 20.9364C9.85839 21.863 9.35695 22.7842 8.89865 23.5073C10.0104 23.833 11.1633 23.999 12.3224 24C18.9921 24 24.4 18.628 24.4 12.0027C24.4 5.37737 18.9974 0 12.3278 0Z" fill="white"/>
</svg>
